# xmcd CD database file
# Copyright (C) 1997 Ti Kan
#
# Track frame offsets:
#  150
#  13853
#  28378
#  41673
#  57043
#  72112
#  83755
#  96123
#  107073
#  118740
#  138970
#  151160
#  163880
#
# Disc length: 2352 seconds
#
# Revision: 1
# Processed by: cddbd v1.4b41PL1 Copyright (c) Steve Scherf et al.
# Submitted via: CDWizzard Release:4.24
#
DISCID=a9092e0d
DTITLE=Dizzy Gillespie - Groovin' High
DYEAR=1900
DGENRE=
TTITLE0=Night and Day
TTITLE1=The Man I Love
TTITLE2=When Its Sleepy Time Down South
TTITLE3=Sweet and Lovely
TTITLE4=My Old Flame
TTITLE5=Jealousie
TTITLE6=Blue and Sentimental
TTITLE7=Pennies From Heaven
TTITLE8=The Very Thought of You
TTITLE9=Blue Moon
TTITLE10=Groovin' High
TTITLE11=All The Things You Are
TTITLE12=Dizzy Atmosphere
EXTD=Compilation
EXTT0=
EXTT1=
EXTT2=
EXTT3=
EXTT4=
EXTT5=
EXTT6=
EXTT7=
EXTT8=
EXTT9=
EXTT10=
EXTT11=
EXTT12=
PLAYORDER=
